<?xml version="1.0" standalone="no"?>
<!DOCTYPE svg PUBLIC "-//W3C//DTD SVG 20010904//EN"
 "http://www.w3.org/TR/2001/REC-SVG-20010904/DTD/svg10.dtd">
<svg version="1.0" xmlns="http://www.w3.org/2000/svg"
 width="717.000000pt" height="717.000000pt" viewBox="0 0 717.000000 717.000000"
 preserveAspectRatio="xMidYMid meet">
<metadata>
Created by potrace 1.14, written by Peter Selinger 2001-2017
</metadata>
<g transform="translate(0.000000,717.000000) scale(0.100000,-0.100000)"
fill="#000000" stroke="none">
<path d="M0 3585 l0 -3585 3585 0 3585 0 0 3585 0 3585 -3585 0 -3585 0 0
-3585z m3644 2549 c9 -8 16 -22 16 -30 0 -8 4 -14 10 -14 5 0 15 -18 21 -40 7
-22 16 -37 22 -33 6 3 7 1 3 -6 -7 -11 1 -32 42 -104 12 -20 22 -39 22 -42 0
-3 0 -10 0 -16 0 -5 5 -7 12 -3 6 4 8 3 5 -3 -7 -11 12 -50 193 -413 316 -631
491 -976 500 -987 5 -7 10 -15 10 -19 0 -7 299 -603 381 -759 31 -60 70 -135
86 -165 15 -30 31 -57 34 -60 12 -11 2 -88 -14 -104 -9 -10 -17 -22 -17 -27 0
-5 -9 -20 -20 -31 -11 -12 -19 -26 -17 -32 2 -5 -7 -20 -19 -33 -13 -14 -31
-41 -42 -61 -10 -20 -40 -74 -65 -120 -26 -45 -53 -92 -59 -105 -7 -12 -18
-29 -24 -37 -6 -8 -23 -35 -36 -60 -32 -58 -57 -101 -102 -175 -19 -33 -41
-71 -48 -85 -7 -14 -36 -65 -65 -113 -29 -48 -53 -90 -53 -93 0 -2 -11 -23
-26 -45 -27 -43 -45 -74 -104 -179 -20 -36 -51 -89 -68 -118 -18 -29 -32 -55
-32 -58 0 -3 -16 -30 -35 -60 -19 -30 -35 -57 -35 -59 0 -3 -11 -22 -24 -43
-52 -81 -350 -603 -389 -681 -26 -52 -66 -101 -83 -101 -7 0 -33 42 -60 93
-26 50 -56 107 -66 125 -10 18 -43 81 -74 140 -32 59 -89 166 -127 237 -67
123 -90 168 -202 380 -26 50 -57 108 -70 130 -33 59 -84 152 -118 217 -16 32
-33 55 -38 52 -5 -3 -9 4 -9 16 0 27 -35 95 -57 112 -10 7 -19 24 -21 38 -3
28 -31 75 -39 66 -10 -10 -32 28 -23 39 5 6 2 21 -7 35 -9 16 -12 18 -8 5 5
-16 3 -16 -18 5 -13 14 -21 29 -19 33 2 5 -5 15 -16 23 -11 7 -23 25 -26 40
-10 38 -36 74 -55 75 -11 0 -12 2 -3 6 10 4 9 9 -5 20 -10 8 -12 11 -4 7 10
-5 12 -3 5 7 -5 8 -9 17 -9 20 0 3 -13 20 -30 37 -16 18 -30 38 -30 45 0 17
-45 87 -56 87 -4 0 -6 6 -3 14 7 19 -13 56 -31 56 -8 0 -15 9 -15 20 0 18 -30
34 -56 29 -5 -1 -15 -1 -23 0 -22 2 -3 15 21 16 12 0 23 7 25 15 4 12 3 12 -5
1 -13 -18 -25 3 -17 29 9 27 -3 25 -16 -2 l-10 -23 5 22 c6 33 -12 39 -20 7
-6 -22 -8 -24 -16 -10 -5 9 -8 24 -6 33 2 13 -5 19 -24 21 -23 3 -27 0 -21
-15 4 -12 0 -10 -15 7 -16 20 -17 26 -6 28 8 2 14 10 14 18 0 17 -12 18 -28 2
-9 -9 -12 -8 -12 5 0 9 -4 17 -10 17 -5 0 -10 7 -10 15 0 9 -7 18 -15 21 -8 4
-12 10 -9 16 3 5 -12 8 -35 7 -23 -2 -41 -7 -41 -12 0 -5 7 -7 15 -3 9 3 15 0
15 -9 0 -8 6 -15 13 -15 8 0 7 -4 -3 -10 -22 -14 -33 -12 -26 5 3 8 1 15 -4
15 -6 0 -10 -16 -10 -36 0 -28 4 -35 18 -33 37 3 62 -1 62 -12 0 -7 -13 -10
-34 -7 -28 3 -37 0 -45 -17 -9 -20 -10 -19 -10 3 -1 16 -7 22 -23 23 -20 2
-21 2 -3 6 17 3 20 10 17 53 -3 33 -8 50 -17 50 -7 0 -15 7 -19 15 -3 8 -1 15
3 15 5 0 11 -6 14 -12 2 -7 8 -10 12 -5 5 4 2 18 -5 32 -8 14 -16 22 -19 18
-11 -14 -51 -11 -51 4 0 8 5 11 10 8 6 -3 10 -1 10 5 0 7 6 10 14 7 8 -3 16
-2 18 3 2 5 13 7 26 4 18 -5 22 -13 22 -45 0 -38 1 -39 35 -39 l35 0 -17 28
c-10 15 -20 29 -24 32 -3 3 -9 15 -13 28 -4 12 -13 22 -20 22 -9 0 -13 15 -13
44 0 50 -8 67 -28 60 -26 -10 -27 -42 -3 -74 27 -37 16 -50 -38 -44 l-34 3 -2
-47 -2 -47 -3 47 c-4 44 -6 47 -41 56 l-37 10 40 2 c22 1 43 2 48 1 4 0 7 6 7
14 0 16 15 21 23 8 2 -5 2 -1 -1 7 -2 8 -5 21 -5 28 -1 21 -15 13 -19 -10 -2
-12 -9 -24 -17 -26 -10 -3 -12 0 -8 12 8 20 -18 63 -41 69 -12 3 -9 6 10 11
24 7 27 12 22 33 -4 15 -2 28 5 32 21 14 0 41 -33 42 l-31 2 35 6 c19 3 35 11
35 16 1 17 19 41 38 48 21 8 23 37 2 37 -8 0 -15 5 -15 11 0 6 7 9 15 5 8 -3
15 -2 15 3 0 4 10 6 23 4 18 -4 22 0 23 21 1 14 -3 26 -10 26 -6 0 -3 5 7 11
9 6 15 14 12 20 -4 5 6 9 22 8 15 0 22 -3 16 -6 -17 -6 -16 -23 1 -23 7 0 16
9 19 20 5 18 0 20 -36 20 -28 0 -37 3 -28 9 7 5 33 7 57 5 39 -4 44 -2 44 16
0 11 5 20 11 20 6 0 9 -7 6 -15 -4 -8 -2 -17 3 -20 6 -4 10 10 11 32 1 39 3
38 13 -10 4 -16 11 -25 17 -21 6 3 8 15 6 26 -3 11 -3 26 -1 33 8 19 50 -25
46 -47 -5 -28 16 -21 52 15 31 32 43 51 44 70 0 5 10 16 21 26 11 10 25 31 31
47 9 22 13 25 20 14 8 -12 10 -10 10 8 0 13 4 20 10 17 5 -3 7 0 4 9 -3 9 3
20 15 28 12 7 21 17 21 21 0 9 33 53 70 94 11 12 20 27 20 33 0 5 4 10 9 10 5
0 15 15 22 34 7 19 17 32 23 30 6 -2 26 21 44 51 35 57 41 62 59 44 8 -8 3
-26 -18 -66 -16 -30 -29 -61 -29 -69 0 -8 -5 -14 -11 -14 -5 0 -7 -4 -4 -10 3
-5 1 -10 -4 -10 -6 0 -11 -16 -11 -35 0 -32 -8 -41 -34 -36 -5 1 -6 -5 -3 -14
4 -8 3 -15 -2 -15 -14 0 -34 -54 -22 -58 6 -2 11 -8 11 -14 0 -6 -7 -7 -16 -4
-8 3 -12 2 -9 -4 3 -6 2 -10 -3 -10 -15 0 -32 -50 -36 -103 -2 -26 -8 -48 -12
-49 -11 -2 -34 -24 -34 -33 0 -3 5 -3 10 0 6 3 10 1 10 -4 0 -6 -6 -11 -13
-11 -12 0 -43 -67 -35 -75 2 -3 10 11 17 30 7 19 18 35 24 36 7 0 24 2 40 3
15 1 27 -2 27 -6 0 -4 -13 -8 -29 -8 -16 0 -35 -7 -42 -16 -12 -15 -11 -16 9
-10 18 6 22 4 22 -15 0 -18 -2 -20 -16 -8 -13 10 -17 10 -24 -2 -6 -8 -6 -15
0 -17 6 -2 10 -20 11 -40 l1 -37 8 33 c4 18 10 36 14 39 6 6 8 -4 10 -52 1
-14 7 -19 20 -17 11 2 15 -1 11 -7 -3 -6 -2 -18 3 -28 9 -15 11 -15 23 4 14
24 40 20 32 -5 -3 -10 -1 -13 4 -7 9 11 143 15 143 4 0 -9 87 -6 96 4 11 11
26 9 19 -3 -4 -6 16 -9 52 -9 64 2 85 -2 94 -15 4 -5 21 -1 39 8 36 18 64 21
55 7 -10 -16 35 -8 50 10 13 13 55 187 70 283 8 57 16 100 40 216 26 124 27
127 45 243 7 42 17 77 22 77 6 0 7 -16 3 -38 -3 -21 -8 -54 -10 -73 -2 -19
-13 -74 -24 -124 -11 -49 -22 -108 -24 -130 -3 -22 -16 -96 -30 -165 -14 -69
-29 -145 -32 -170 -3 -25 -8 -58 -11 -73 -9 -45 15 -56 121 -51 190 8 310 14
615 35 384 26 388 27 352 134 -7 22 -19 54 -26 70 -7 17 -67 194 -134 395 -67
201 -145 430 -173 510 -28 80 -55 159 -59 175 -8 28 -130 382 -186 540 -14 39
-34 97 -46 130 -11 33 -25 63 -32 67 -6 4 -8 8 -3 8 9 0 -23 50 -33 50 -10 0
-27 -65 -35 -132 -4 -32 -11 -55 -16 -52 -5 3 -9 0 -9 -7 0 -7 -2 -10 -4 -8
-2 2 0 27 5 54 17 86 21 155 10 155 -6 0 -11 -6 -11 -14 0 -7 -10 -25 -21 -40
-22 -28 -299 -483 -377 -621 -26 -44 -49 -82 -52 -85 -3 -3 -27 -41 -53 -85
-68 -117 -61 -109 -87 -95 -19 10 -20 13 -7 28 8 9 35 53 61 97 26 44 87 145
136 225 48 80 127 210 175 290 48 80 107 178 131 218 24 41 44 76 44 80 0 3 7
13 16 23 8 9 16 26 17 37 0 11 5 18 9 16 4 -3 10 7 14 21 7 30 44 75 61 75 6
0 19 -7 27 -16z m-89 -384 c3 -5 1 -10 -4 -10 -6 0 -11 5 -11 10 0 6 2 10 4
10 3 0 8 -4 11 -10z m-9 -68 c-12 -11 -18 7 -10 30 l8 23 4 -23 c2 -13 1 -26
-2 -30z m-10 -29 c-6 -25 -25 -120 -32 -168 -3 -22 -14 -80 -24 -130 -10 -49
-23 -126 -30 -170 -7 -44 -22 -125 -35 -180 -13 -55 -26 -118 -28 -140 -9 -81
-29 -175 -38 -175 -9 0 -5 32 13 105 5 22 9 49 9 60 0 11 9 60 19 110 11 49
22 104 24 120 8 55 25 149 45 245 11 52 30 150 42 218 13 67 27 122 32 122 4
0 6 -8 3 -17z m-608 -595 c32 -27 5 -105 -58 -168 -19 -19 -34 -38 -32 -43 1
-5 -2 -6 -7 -3 -5 3 -16 3 -25 0 -11 -4 -13 -12 -6 -28 9 -25 -8 -56 -32 -56
-10 0 -18 -13 -22 -35 -5 -26 -11 -33 -23 -28 -11 4 -14 3 -9 -5 4 -7 0 -19
-9 -28 -15 -15 -19 -14 -47 12 -72 68 -86 161 -39 260 47 99 123 144 235 136
33 -2 67 -9 74 -14z m-725 -895 c-7 -2 -21 -2 -30 0 -10 3 -4 5 12 5 17 0 24
-2 18 -5z m85 0 c-10 -2 -28 -2 -40 0 -13 2 -5 4 17 4 22 1 32 -1 23 -4z m2
-17 c0 -3 -4 -8 -10 -11 -5 -3 -10 -1 -10 4 0 6 5 11 10 11 6 0 10 -2 10 -4z
m-353 -243 c-3 -10 -5 -4 -5 12 0 17 2 24 5 18 2 -7 2 -21 0 -30z m41 -440
c-15 -2 -42 -2 -60 0 -18 2 -6 4 27 4 33 0 48 -2 33 -4z m282 -143 c0 -5 -2
-10 -4 -10 -3 0 -8 5 -11 10 -3 6 -1 10 4 10 6 0 11 -4 11 -10z m30 -80 c0 -5
-5 -10 -11 -10 -5 0 -7 5 -4 10 3 6 8 10 11 10 2 0 4 -4 4 -10z m123 -90 c-3
-11 -9 -17 -14 -15 -10 7 -1 35 11 35 5 0 6 -9 3 -20z"/>
<path d="M3864 5542 c-9 -14 -8 -18 6 -18 11 0 15 6 12 18 -2 10 -5 18 -6 18
-1 0 -6 -8 -12 -18z"/>
<path d="M3865 5493 c4 -10 14 -38 21 -63 13 -47 140 -420 270 -795 41 -121
79 -234 83 -250 4 -17 13 -39 19 -50 6 -11 20 -49 31 -85 23 -78 78 -237 91
-265 5 -11 12 -30 15 -42 6 -21 94 -114 115 -121 5 -2 28 -21 52 -42 23 -22
44 -38 46 -36 3 4 11 -3 82 -68 38 -35 97 -76 113 -79 7 -1 15 -6 19 -11 3 -5
13 -11 21 -12 12 -1 13 4 4 30 -18 57 -91 206 -101 206 -5 0 -7 3 -3 6 8 8
-799 1615 -818 1630 -8 6 -16 22 -18 35 -3 16 -12 25 -27 27 -19 3 -21 1 -15
-15z"/>
<path d="M2501 4134 c0 -11 3 -14 6 -6 3 7 2 16 -1 19 -3 4 -6 -2 -5 -13z"/>
<path d="M2110 4030 c0 -5 5 -10 11 -10 5 0 7 5 4 10 -3 6 -8 10 -11 10 -2 0
-4 -4 -4 -10z"/>
<path d="M2223 4022 c-3 -7 -3 -16 1 -19 3 -4 6 -1 6 6 0 7 4 10 9 7 5 -3 14
1 21 9 9 11 8 14 -10 12 -12 -1 -25 -7 -27 -15z"/>
<path d="M2450 3962 c0 -5 7 -13 16 -16 10 -4 14 -1 12 6 -5 15 -28 23 -28 10z"/>
<path d="M1945 3850 c4 -6 11 -8 16 -5 14 9 11 15 -7 15 -8 0 -12 -5 -9 -10z"/>
<path d="M3980 3835 c-102 -7 -248 -16 -325 -19 -77 -4 -151 -9 -165 -12 -14
-2 -64 -6 -112 -8 -122 -5 -185 -23 -196 -55 -12 -33 -59 -287 -68 -364 l-7
-58 64 1 c35 1 190 8 344 16 154 8 369 19 478 24 119 5 203 13 211 19 8 7 22
42 31 79 9 37 30 114 47 172 16 58 31 128 33 157 4 72 10 71 -335 48z"/>
<path d="M4390 3786 c0 -8 -4 -16 -9 -18 -7 -3 -56 -176 -81 -288 -25 -111
-27 -100 16 -102 52 -2 75 -2 244 7 92 4 141 3 135 -3 -5 -5 -95 -14 -200 -20
-104 -5 -198 -13 -207 -17 -10 -4 -18 -16 -18 -27 0 -10 -4 -17 -9 -14 -5 3
-17 -29 -26 -72 -10 -42 -24 -97 -31 -122 -7 -25 -20 -72 -29 -105 -8 -33 -31
-121 -51 -195 -20 -74 -37 -139 -38 -145 -1 -5 -4 -14 -8 -20 -3 -5 -9 -32
-13 -60 -4 -27 -11 -58 -16 -67 -5 -9 -11 -29 -13 -45 -2 -15 -8 -41 -15 -56
-6 -16 -11 -32 -11 -37 0 -5 -13 -56 -29 -112 -25 -89 -41 -154 -46 -193 -1
-5 -5 -18 -9 -27 -4 -9 -9 -25 -11 -35 -2 -10 -4 -18 -5 -18 -1 0 -56 -210
-81 -310 -11 -44 -28 -105 -38 -135 -28 -82 -36 -156 -17 -163 10 -4 22 4 34
21 23 32 102 163 102 168 0 1 27 48 60 102 33 55 60 102 60 105 0 3 17 34 38
68 22 35 50 84 64 109 58 102 406 705 479 830 24 41 46 79 47 83 2 4 19 33 38
64 18 31 31 60 28 64 -3 5 -1 9 5 9 9 0 30 33 121 195 63 111 70 127 70 146 0
13 4 18 12 13 7 -5 8 -3 4 5 -5 8 -30 12 -69 11 -101 -2 -114 -1 -97 10 8 5
39 10 68 10 45 0 52 3 52 20 0 11 -3 20 -8 20 -4 0 -25 17 -47 38 -22 21 -60
53 -85 72 -25 19 -54 43 -65 53 -11 11 -47 40 -80 65 -33 25 -62 49 -65 52 -3
4 -27 23 -53 43 -50 38 -97 49 -97 23z"/>
<path d="M1951 3764 c0 -11 3 -14 6 -6 3 7 2 16 -1 19 -3 4 -6 -2 -5 -13z"/>
<path d="M3128 3773 c7 -3 16 -2 19 1 4 3 -2 6 -13 5 -11 0 -14 -3 -6 -6z"/>
<path d="M2996 3754 c-4 -11 -15 -13 -41 -8 -21 4 -41 2 -49 -5 -7 -6 -24 -11
-37 -10 -34 1 -141 -11 -229 -26 -41 -7 -77 -12 -80 -11 -3 2 -13 -5 -22 -16
-10 -10 -15 -19 -10 -20 4 0 12 -2 17 -3 6 -2 18 -3 28 -4 9 0 17 -8 17 -16 0
-8 8 -15 18 -16 14 0 14 -2 -3 -9 -11 -5 -14 -9 -7 -9 15 -1 74 -56 66 -63 -2
-3 2 -8 11 -12 9 -3 13 -2 10 4 -3 6 1 7 9 4 9 -3 13 -10 10 -15 -5 -8 19 -13
30 -6 3 1 15 -8 28 -20 26 -24 306 -168 314 -161 2 3 13 54 24 114 11 60 29
153 41 207 11 54 19 100 17 102 -2 3 -38 6 -80 9 -61 4 -78 2 -82 -10z"/>
<path d="M2063 3645 c-8 -22 6 -33 17 -15 13 20 12 30 0 30 -6 0 -13 -7 -17
-15z"/>
<path d="M2488 3653 c7 -3 16 -2 19 1 4 3 -2 6 -13 5 -11 0 -14 -3 -6 -6z"/>
<path d="M2031 3524 c0 -11 3 -14 6 -6 3 7 2 16 -1 19 -3 4 -6 -2 -5 -13z"/>
<path d="M2530 3498 c0 -10 5 -18 10 -18 6 0 10 -4 10 -10 0 -16 -18 -12 -40
10 -24 24 -52 27 -43 4 5 -13 7 -13 14 -2 7 10 9 9 9 -4 0 -10 7 -18 15 -18
10 0 15 -10 15 -27 l0 -27 -16 22 c-18 26 -30 28 -38 7 -8 -22 4 -47 20 -41
10 4 14 -3 15 -22 1 -18 3 -21 6 -9 5 18 5 18 18 0 8 -11 10 -22 4 -29 -13
-16 -4 -75 13 -85 8 -4 13 -22 13 -43 -1 -20 2 -36 7 -36 5 0 6 -4 3 -10 -3
-5 1 -10 10 -10 9 0 13 -4 10 -10 -3 -5 -1 -10 5 -10 7 0 10 -6 7 -13 -5 -15
18 -39 28 -29 5 4 3 -2 -2 -12 -6 -10 -8 -28 -5 -39 5 -20 6 -20 13 -1 7 18 8
18 8 -2 1 -11 6 -25 13 -32 9 -9 9 -12 -2 -12 -8 0 -5 -7 8 -19 12 -10 22 -25
22 -34 0 -26 11 -47 25 -47 7 0 15 -9 18 -20 3 -13 1 -18 -6 -13 -7 4 -7 1 1
-9 10 -13 10 -17 0 -21 -7 -2 -1 -8 15 -12 17 -5 27 -14 27 -26 0 -10 4 -19 9
-19 4 0 7 -13 5 -30 -2 -16 0 -30 5 -30 5 0 12 -11 15 -25 4 -15 14 -25 24
-25 13 0 14 -2 3 -9 -11 -7 -9 -17 10 -55 12 -25 26 -46 31 -46 4 0 7 -4 5 -8
-4 -16 56 -131 66 -125 6 3 7 1 4 -4 -7 -12 38 -104 57 -115 6 -4 8 -8 4 -8
-7 0 48 -108 239 -465 17 -33 45 -85 61 -115 80 -152 149 -282 181 -340 20
-36 45 -82 56 -102 27 -53 36 -38 19 35 -9 34 -19 83 -24 110 -5 26 -17 71
-25 101 -9 29 -18 69 -20 88 -3 20 -18 85 -34 145 -16 59 -41 160 -56 223 -58
250 -150 630 -190 790 -13 52 -27 111 -30 130 -3 19 -12 55 -20 80 -7 25 -21
79 -31 120 -9 41 -24 104 -34 140 l-16 65 -89 44 c-50 25 -115 57 -146 73 -57
28 -95 36 -84 18 3 -5 1 -10 -5 -10 -7 0 -9 8 -5 20 5 16 2 20 -14 20 -12 0
-21 4 -21 9 0 9 -57 27 -72 23 -5 -1 -8 4 -8 11 0 8 -4 7 -10 -3 -5 -8 -10
-11 -10 -6 0 5 -7 3 -15 -4 -12 -10 -18 -10 -30 0 -8 7 -15 9 -15 4 0 -5 -5
-2 -10 6 -8 13 -10 12 -10 -2z m110 -28 c0 -5 -12 -10 -27 -9 -25 0 -26 1 -8
9 27 12 35 12 35 0z"/>
<path d="M2575 3500 c-3 -5 -1 -10 4 -10 6 0 11 5 11 10 0 6 -2 10 -4 10 -3 0
-8 -4 -11 -10z"/>
<path d="M4076 3343 c-1 -1 -83 -5 -182 -8 -174 -4 -316 -11 -439 -20 -33 -2
-124 -7 -202 -11 -168 -8 -158 5 -117 -150 14 -55 26 -109 26 -121 0 -13 5
-23 10 -23 5 0 7 -4 4 -8 -3 -5 6 -51 19 -103 38 -146 86 -351 90 -381 2 -14
13 -62 24 -105 32 -119 81 -324 87 -358 3 -16 14 -64 24 -105 11 -41 36 -142
55 -225 20 -82 50 -208 67 -280 18 -71 40 -161 51 -199 l20 -69 18 24 c18 24
23 42 74 239 26 104 57 220 114 435 32 118 76 288 112 425 12 47 23 92 24 100
1 8 5 22 7 30 16 45 26 94 22 102 -3 4 -1 8 4 8 5 0 15 26 22 58 12 54 29 120
100 378 16 61 30 118 30 126 0 8 11 51 25 94 14 43 28 93 31 110 l6 32 -62 4
c-34 1 -63 2 -64 1z"/>
<path d="M2501 3314 c0 -11 3 -14 6 -6 3 7 2 16 -1 19 -3 4 -6 -2 -5 -13z"/>
</g>
</svg>
